<?xml version="1.0" encoding="utf-8"?>
<!-- Generator: Adobe Illustrator 17.0.2, SVG Export Plug-In . SVG Version: 6.00 Build 0)  -->
<!DOCTYPE svg PUBLIC "-//W3C//DTD SVG 1.1//EN" "http://www.w3.org/Graphics/SVG/1.1/DTD/svg11.dtd">
<svg version="1.1" id="Calque_1" xmlns="http://www.w3.org/2000/svg" xmlns:xlink="http://www.w3.org/1999/xlink" x="0px" y="0px"
	 width="115px" height="29px" viewBox="0 0 115 29" enable-background="new 0 0 115 29" xml:space="preserve">
<g>
	<g>
		<path fill="#F75F4F" d="M79.056,6.527c1.098,0,2.142,0.214,3.131,0.64c0.987,0.427,1.853,1.011,2.593,1.751
			c0.742,0.742,1.331,1.606,1.769,2.595c0.439,0.988,0.657,2.054,0.657,3.199c0,1.124-0.214,2.173-0.64,3.15
			c-0.426,0.976-1.004,1.835-1.735,2.576c-0.73,0.742-1.588,1.325-2.576,1.752c-0.989,0.425-2.056,0.639-3.199,0.639
			c-1.125,0-2.18-0.203-3.167-0.606c-0.989-0.404-1.853-0.971-2.593-1.701c-0.742-0.729-1.325-1.588-1.752-2.578
			c-0.428-0.987-0.64-2.065-0.64-3.233c0-1.123,0.206-2.172,0.623-3.148c0.415-0.977,0.988-1.83,1.718-2.561
			c0.728-0.728,1.594-1.313,2.593-1.752C76.837,6.814,77.909,6.572,79.056,6.527z M79.056,10.94c-0.518,0-1.001,0.096-1.449,0.285
			c-0.449,0.191-0.849,0.455-1.196,0.792c-0.349,0.337-0.623,0.736-0.826,1.196c-0.201,0.46-0.302,0.959-0.302,1.498
			c0,0.517,0.101,1.006,0.302,1.466c0.203,0.46,0.477,0.864,0.826,1.213c0.347,0.348,0.747,0.623,1.196,0.825
			c0.449,0.202,0.931,0.303,1.449,0.303c0.514,0,1.002-0.101,1.464-0.303c0.46-0.202,0.858-0.477,1.196-0.825
			c0.336-0.349,0.606-0.753,0.807-1.213c0.203-0.46,0.304-0.949,0.304-1.466c-0.045-1.032-0.417-1.907-1.111-2.626
			C81.02,11.366,80.132,10.985,79.056,10.94z"/>
	</g>
	<g>
		<path fill="#F75F4F" d="M13.389,22.739c-0.817,0-1.583-0.154-2.298-0.462c-0.717-0.309-1.339-0.722-1.868-1.241
			c-0.528-0.517-0.948-1.123-1.256-1.817s-0.462-1.427-0.462-2.198V8.679C7.483,8.392,7.532,8.116,7.654,7.852
			c0.12-0.265,0.28-0.496,0.479-0.695c0.199-0.197,0.43-0.351,0.695-0.462c0.265-0.11,0.55-0.165,0.86-0.165
			c0.573,0,1.063,0.193,1.47,0.578c0.407,0.386,0.633,0.843,0.678,1.371v8.41c0.022,0.44,0.182,0.804,0.479,1.091
			c0.298,0.286,0.657,0.43,1.076,0.43c0.374,0,0.715-0.138,1.023-0.413c0.308-0.276,0.475-0.635,0.496-1.076V8.513
			c0-0.55,0.222-1.018,0.663-1.404c0.439-0.385,0.935-0.578,1.487-0.578c0.595,0,1.108,0.208,1.538,0.627
			c0.428,0.419,0.644,0.926,0.644,1.522v8.243c0,0.486,0.16,0.854,0.479,1.108c0.319,0.253,0.667,0.381,1.042,0.381
			c0.441,0,0.809-0.144,1.108-0.43c0.297-0.286,0.445-0.639,0.445-1.059V8.679c0-0.574,0.216-1.075,0.646-1.505
			c0.43-0.43,0.929-0.644,1.504-0.644c0.573,0,1.079,0.199,1.521,0.595c0.439,0.396,0.661,0.86,0.661,1.387v8.508
			c0,0.794-0.16,1.543-0.479,2.248c-0.321,0.705-0.751,1.311-1.29,1.818c-0.541,0.507-1.168,0.909-1.885,1.205
			c-0.715,0.298-1.459,0.447-2.23,0.447c-1.41,0-2.645-0.43-3.702-1.29c-0.529,0.441-1.108,0.766-1.735,0.976
			C14.694,22.636,14.05,22.739,13.389,22.739z"/>
	</g>
	<g>
		<path fill="#F75F4F" d="M44.231,20.634c0.043,0.639,0.287,1.15,0.685,1.537c0.396,0.385,0.903,0.578,1.498,0.576
			c0.638,0,1.158-0.186,1.543-0.561c0.385-0.374,0.603-0.849,0.648-1.422l-0.002-6.016c0-0.529,0.098-1.019,0.297-1.472
			c0.197-0.451,0.462-0.843,0.792-1.173c0.332-0.33,0.717-0.59,1.158-0.777c1.001-0.425,2.125-0.099,2.974-0.927
			c0.871-0.849,0.772-2.18-0.051-3.024c-0.407-0.417-0.922-0.627-1.538-0.627c-1.079,0.045-2.099,0.27-3.056,0.68
			c-0.259,0.11-0.509,0.231-0.749,0.362c-0.109-0.26-0.267-0.492-0.475-0.696c-0.387-0.375-0.899-0.56-1.538-0.56
			c-0.595,0-1.091,0.192-1.487,0.579c-0.396,0.386-0.663,0.898-0.706,1.537L44.231,20.634z"/>
	</g>
	<g>
		<g>
			<path fill="#F75F4F" d="M61.987,6.527c1.1,0,2.144,0.214,3.131,0.64c0.989,0.427,1.853,1.011,2.595,1.751
				c0.74,0.742,1.329,1.606,1.768,2.595c0.437,0.988,0.657,2.054,0.657,3.199c0,1.124-0.214,2.173-0.64,3.15
				c-0.428,0.976-1.006,1.835-1.735,2.576c-0.73,0.742-1.59,1.325-2.578,1.752c-0.988,0.425-2.054,0.639-3.199,0.639
				c-1.123,0-2.178-0.203-3.167-0.606c-0.987-0.404-1.851-0.971-2.593-1.701c-0.741-0.729-1.325-1.588-1.752-2.578
				c-0.426-0.987-0.64-2.065-0.64-3.233c0-1.123,0.206-2.172,0.623-3.148c0.415-0.977,0.987-1.83,1.718-2.561
				c0.728-0.728,1.594-1.313,2.593-1.752C59.768,6.814,60.842,6.572,61.987,6.527z M61.987,10.94c-0.518,0-0.999,0.096-1.449,0.285
				c-0.449,0.191-0.847,0.455-1.196,0.792c-0.347,0.337-0.623,0.736-0.824,1.196c-0.203,0.46-0.304,0.959-0.304,1.498
				c0,0.517,0.101,1.006,0.304,1.466c0.201,0.46,0.477,0.864,0.824,1.213c0.349,0.348,0.747,0.623,1.196,0.825
				c0.451,0.202,0.931,0.303,1.449,0.303c0.516,0,1.004-0.101,1.464-0.303c0.46-0.202,0.86-0.477,1.196-0.825
				c0.338-0.349,0.606-0.753,0.809-1.213c0.201-0.46,0.302-0.949,0.302-1.466c-0.045-1.032-0.415-1.907-1.111-2.626
				C63.951,11.366,63.065,10.985,61.987,10.94z"/>
		</g>
	</g>
	<path fill="#F75F4F" d="M35.813,10.087c0.749,0,1.449,0.202,2.056,0.55l-6.186,4.014c-0.013-0.135-0.021-0.273-0.021-0.413
		C31.662,11.949,33.524,10.087,35.813,10.087z M41.8,9.084c-1.324-1.947-3.807-2.914-5.987-2.914c-4.448,0-8.067,3.619-8.067,8.067
		c0,4.449,3.62,8.069,8.067,8.069c3.52,0,5.769-1.761,6.847-3.803c0.227-0.431,1.098-2.021-0.394-2.943
		c-1.192-0.736-2.351,0.106-2.97,0.934c-0.813,1.09-2.024,1.893-3.483,1.893c-0.702,0-1.365-0.176-1.945-0.486l7.322-4.682
		C42.671,12.167,42.694,10.398,41.8,9.084z"/>
	<g>
		<path fill="#F75F4F" d="M101.611,6.53c0.815,0,1.581,0.154,2.298,0.463c0.715,0.309,1.339,0.722,1.866,1.239
			c0.529,0.517,0.948,1.124,1.256,1.818c0.31,0.695,0.464,1.427,0.464,2.198v8.343c0.022,0.285-0.028,0.561-0.15,0.826
			c-0.12,0.264-0.28,0.496-0.479,0.694c-0.197,0.198-0.43,0.352-0.695,0.463c-0.263,0.111-0.55,0.165-0.858,0.165
			c-0.573,0-1.063-0.192-1.472-0.578c-0.407-0.386-0.633-0.843-0.678-1.371v-8.41c-0.021-0.44-0.182-0.804-0.479-1.09
			c-0.297-0.288-0.655-0.43-1.074-0.43c-0.375,0-0.715,0.136-1.025,0.413c-0.308,0.275-0.473,0.633-0.496,1.074v8.409
			c0,0.551-0.22,1.019-0.661,1.405c-0.441,0.386-0.937,0.578-1.489,0.578c-0.595,0-1.106-0.209-1.536-0.628
			c-0.43-0.419-0.646-0.926-0.646-1.52v-8.244c0-0.484-0.158-0.854-0.479-1.107c-0.319-0.253-0.667-0.38-1.04-0.38
			c-0.441,0-0.811,0.142-1.108,0.43c-0.299,0.286-0.447,0.638-0.447,1.057v8.244c0,0.573-0.216,1.074-0.644,1.504
			c-0.43,0.43-0.931,0.644-1.506,0.644c-0.573,0-1.079-0.198-1.519-0.595c-0.441-0.396-0.661-0.86-0.661-1.388v-8.507
			c0-0.794,0.16-1.543,0.479-2.247c0.319-0.706,0.749-1.312,1.29-1.819c0.539-0.507,1.168-0.909,1.883-1.206
			c0.717-0.298,1.461-0.446,2.232-0.446c1.41,0,2.643,0.43,3.702,1.289c0.528-0.441,1.108-0.766,1.735-0.975
			C100.304,6.634,100.95,6.53,101.611,6.53z"/>
	</g>
</g>
</svg>
